<svg height="512pt" viewBox="-81 0 512 512.00031" width="512pt" xmlns="http://www.w3.org/2000/svg"><path d="m262.480469 298.472656-13.242188-85.371094-14.8125 2.296876 11.992188 77.320312-85.621094 5.839844-1.359375-13.023438-14.910156 1.554688 1.792968 17.171875-146.320312 184.570312 29.015625 23.109375 27.949219-3.164062c47.289062-60.183594 35.085937-44.652344 54.960937-69.949219 52.125 39.3125-81.664062-61.609375 97.015625 73.171875l27.4375-3.84375 22.03125-29.210938-38.605468-29.121093-39.097657-29.492188 84.414063-107.894531zm-213.375 196.109375-15.605469 1.765625-12.433594-9.902344 21.378906-26.835937 21.117188 16.820313zm179.042969-.410156-15.136719 2.121094-18.007813-13.585938 15.773438-20.914062 26.640625 20.09375zm-68.648438-71.058594 39.308594 29.648438-15.777344 20.914062-61.839844-46.640625 65.492188-83.359375-11.789063-9.261719-101.8125 129.585938-21.097656-16.804688 105.914063-133.410156 91.046874-6.207031.183594.96875zm0 0"/><path d="m286.71875 131.964844v-.003906l-70.921875-11.398438.019531-9.484375 24.257813-16.746094 6.765625-36.9375c4.832031-26.375-12.695313-51.757812-39.070313-56.589843-26.429687-4.839844-51.746093 12.628906-56.589843 39.070312l-12.207032 66.664062 27.492188 5.03125-.011719 6.671876-70.597656-9.585938 3.023437-66.332031-33.726562-.960938-21.8125 17.027344-5.089844 97.386719 64.039062 10.304687 30.121094 4.84375 10.039063 96.285157 14.910156-1.554688-11.230469-107.707031-27.40625-4.410157 2.863282-26.542968 46.839843 6.667968 15.417969 42.351563.003906-.003906v.003906l27.953125-40.914063 58.488281 9.402344-2.882812 26.714844-40.582031-4.828125 4.535156 29.21875 14.8125-2.300781-1.503906-9.699219c34.550781 4.113281 23.394531 2.78125 48.484375 5.777344l-3.023438 66.335937 33.726563.957032 21.8125-17.03125 5.09375-97.382813zm-228.765625-65.960938 12.167969-9.5 13.085937.371094-2.960937 65.015625 26.46875 3.160156-2.816406 26.105469-49.976563-8.042969zm123.472656 59.554688.023438-11.242188 19.359375 3.546875-.011719 6.757813-12.859375 18.824218c-4.773438-13.117187-3.21875-8.851562-6.511719-17.886718zm-15.5-82.980469c3.351563-18.289063 20.855469-30.371094 39.144531-27.027344 18.242188 3.34375 30.363282 20.902344 27.023438 39.144531l-5.644531 30.828126-10.59375 7.3125-14.355469 9.914062-45.078125-8.257812zm165.128907 189.464844-12.167969 9.5-13.085938-.371094 2.960938-65.015625-26.464844-3.160156 2.816406-26.105469 49.972657 8.042969zm0 0"/><path d="m209.875 224.199219h-14.992188v-14.992188h14.992188zm-24.984375 0h-14.992187v-14.992188h14.992187zm0 0"/></svg>